<svg width="41" height="40" viewBox="0 0 41 40" fill="none" xmlns="http://www.w3.org/2000/svg">
<circle cx="20.5015" cy="19.9937" r="20" fill="#449C87"/>
<path d="M25.5015 9.99365H15.5015C12.74 9.99365 10.5015 12.2322 10.5015 14.9937V24.9937C10.5015 27.7551 12.74 29.9937 15.5015 29.9937H25.5015C28.2629 29.9937 30.5015 27.7551 30.5015 24.9937V14.9937C30.5015 12.2322 28.2629 9.99365 25.5015 9.99365Z" stroke="#008C8E" stroke-width="2" stroke-linecap="round" stroke-linejoin="round"/>
<path d="M24.5014 19.364C24.6248 20.1962 24.4827 21.0462 24.0952 21.793C23.7077 22.5398 23.0946 23.1454 22.343 23.5236C21.5915 23.9019 20.7399 24.0336 19.9092 23.8999C19.0785 23.7662 18.3112 23.374 17.7163 22.7791C17.1213 22.1842 16.7291 21.4168 16.5955 20.5862C16.4618 19.7555 16.5935 18.9038 16.9717 18.1523C17.35 17.4008 17.9556 16.7877 18.7024 16.4002C19.4492 16.0127 20.2992 15.8705 21.1314 15.994C21.9803 16.1198 22.7663 16.5154 23.3731 17.1223C23.98 17.7291 24.3755 18.515 24.5014 19.364Z" stroke="#008C8E" stroke-width="2" stroke-linecap="round" stroke-linejoin="round"/>
<path d="M26.0015 14.4937H26.0115" stroke="#008C8E" stroke-width="2" stroke-linecap="round" stroke-linejoin="round"/>
</svg>
