<svg width="41" height="40" viewBox="0 0 41 40" fill="none" xmlns="http://www.w3.org/2000/svg">
<circle cx="20.5015" cy="19.9937" r="20" fill="#449C87"/>
<path d="M24.5015 15.9937C26.0928 15.9937 27.6189 16.6258 28.7441 17.751C29.8693 18.8762 30.5015 20.4024 30.5015 21.9937V28.9937H26.5015V21.9937C26.5015 21.4632 26.2908 20.9545 25.9157 20.5794C25.5406 20.2044 25.0319 19.9937 24.5015 19.9937C23.971 19.9937 23.4623 20.2044 23.0873 20.5794C22.7122 20.9545 22.5015 21.4632 22.5015 21.9937V28.9937H18.5015V21.9937C18.5015 20.4024 19.1336 18.8762 20.2588 17.751C21.384 16.6258 22.9102 15.9937 24.5015 15.9937V15.9937Z" stroke="#008C8E" stroke-width="2" stroke-linecap="round" stroke-linejoin="round"/>
<path d="M14.5015 16.9937H10.5015V28.9937H14.5015V16.9937Z" stroke="#008C8E" stroke-width="2" stroke-linecap="round" stroke-linejoin="round"/>
<path d="M12.5015 13.9937C13.606 13.9937 14.5015 13.0982 14.5015 11.9937C14.5015 10.8891 13.606 9.99365 12.5015 9.99365C11.3969 9.99365 10.5015 10.8891 10.5015 11.9937C10.5015 13.0982 11.3969 13.9937 12.5015 13.9937Z" stroke="#008C8E" stroke-width="2" stroke-linecap="round" stroke-linejoin="round"/>
</svg>
