<svg width="60" height="60" viewBox="0 0 60 60" fill="none" xmlns="http://www.w3.org/2000/svg">
<rect x="0.5" y="0.5" width="59" height="59" rx="29.5" fill="#979797" fill-opacity="0.23"/>
<g clip-path="url(#clip0_1_2426)">
<mask id="mask0_1_2426" style="mask-type:luminance" maskUnits="userSpaceOnUse" x="12" y="12" width="36" height="36">
<path d="M47.5 12.5H12.5V47.5H47.5V12.5Z" fill="white"/>
</mask>
<g mask="url(#mask0_1_2426)">
<mask id="mask1_1_2426" style="mask-type:luminance" maskUnits="userSpaceOnUse" x="12" y="12" width="36" height="36">
<path d="M12.5 12.5H47.5V47.5H12.5V12.5Z" fill="white"/>
</mask>
<g mask="url(#mask1_1_2426)">
<path d="M29.4584 16.9793L20.7084 20.4793C20.1547 20.7008 19.7917 21.237 19.7917 21.8333V30C19.7917 33.5394 21.6284 36.723 24.6299 39.5245C25.6494 40.4759 26.7363 41.3166 27.8238 42.0416L28.2899 42.3454C28.7279 42.6244 29.0787 42.8281 29.3137 42.9535C29.7426 43.1822 30.2574 43.1822 30.6863 42.9535L30.9589 42.8021C31.2679 42.6249 31.683 42.3703 32.1761 42.0416C33.2636 41.3166 34.3506 40.4759 35.37 39.5245C38.3716 36.723 40.2083 33.5394 40.2083 30V21.8333C40.2083 21.237 39.8453 20.7008 39.2916 20.4793L30.5416 16.9793C30.1939 16.8402 29.8061 16.8402 29.4584 16.9793ZM30 19.904L37.2917 22.8207V30C37.2917 32.5857 35.8472 35.0895 33.3799 37.3922C32.4853 38.2272 31.5215 38.9725 30.5582 39.6147L30.1548 39.8779L30 39.975L29.8452 39.8779C29.7199 39.798 29.585 39.7102 29.4417 39.6147C28.4785 38.9725 27.5146 38.2272 26.62 37.3922L26.2746 37.0619C24.0186 34.8509 22.7083 32.4625 22.7083 30V22.8192L30 19.904Z" fill="white"/>
</g>
</g>
</g>
<rect x="0.5" y="0.5" width="59" height="59" rx="29.5" stroke="white"/>
<defs>
<clipPath id="clip0_1_2426">
<rect width="35" height="35" fill="white" transform="translate(12.5 12.5)"/>
</clipPath>
</defs>
</svg>
