<svg width="41" height="40" viewBox="0 0 41 40" fill="none" xmlns="http://www.w3.org/2000/svg">
<circle cx="20.5015" cy="19.9937" r="20" fill="#449C87"/>
<g clip-path="url(#clip0_1_2524)">
<path d="M31.5015 10.992C30.5438 11.6675 29.4836 12.1841 28.3615 12.522C27.7592 11.8295 26.9588 11.3387 26.0685 11.1159C25.1782 10.8931 24.241 10.9492 23.3835 11.2764C22.5261 11.6037 21.7899 12.1864 21.2744 12.9457C20.759 13.705 20.4892 14.6043 20.5015 15.522V16.522C18.7441 16.5676 17.0027 16.1778 15.4325 15.3874C13.8622 14.5971 12.5118 13.4306 11.5015 11.992C11.5015 11.992 7.50146 20.992 16.5015 24.992C14.442 26.39 11.9886 27.0909 9.50146 26.992C18.5015 31.992 29.5015 26.992 29.5015 15.492C29.5005 15.2134 29.4738 14.9356 29.4215 14.662C30.4421 13.6555 31.1623 12.3847 31.5015 10.992V10.992Z" stroke="#008C8E" stroke-width="2" stroke-linecap="round" stroke-linejoin="round"/>
</g>
<defs>
<clipPath id="clip0_1_2524">
<rect width="24" height="24" fill="white" transform="translate(8.50146 7.99365)"/>
</clipPath>
</defs>
</svg>
